name Walk4.mot
datacolumns 19
datarows 15
range 1.43000000 1.44400000
endheader

                time	   L_ground_force_vx	   L_ground_force_vy	   L_ground_force_vz	   L_ground_force_px	   L_ground_force_py	   L_ground_force_pz	   R_ground_force_vx	   R_ground_force_vy	   R_ground_force_vz	   R_ground_force_px	   R_ground_force_py	   R_ground_force_pz	   L_ground_torque_x	   L_ground_torque_y	   L_ground_torque_z	   R_ground_torque_x	   R_ground_torque_y	   R_ground_torque_z	
          1.43000000	          0.48890746	         69.93193220	         -9.64089595	          0.00491098	          0.00000000	          0.00757333	         -0.00000001	          0.00000025	          0.00000001	          0.00000000	          0.00000000	          0.00000000	          0.00000000	          0.16438775	          0.00000000	          0.00000000	         -0.00000000	          0.00000000	
          1.43100000	          0.12102129	         75.72542982	        -10.40326633	         -0.00950559	          0.00000000	          0.00406495	         -0.00000002	          0.00000028	          0.00000001	          0.00000000	          0.00000000	          0.00000000	          0.00000000	          0.17771331	          0.00000000	          0.00000000	         -0.00000000	          0.00000000	
          1.43200000	         -0.28989038	         81.69955441	        -11.18046167	         -0.02387044	          0.00000000	          0.00057487	         -0.00000002	          0.00000031	          0.00000001	          0.00000000	          0.00000000	          0.00000000	          0.00000000	          0.19121872	          0.00000000	          0.00000000	         -0.00000000	          0.00000000	
          1.43300000	         -0.74595108	         87.84737621	        -11.97092777	         -0.03814824	          0.00000000	         -0.00288850	         -0.00000002	          0.00000035	          0.00000001	          0.00000000	          0.00000000	          0.00000000	          0.00000000	          0.20487183	          0.00000000	          0.00000000	         -0.00000000	          0.00000000	
          1.43400000	         -1.24927949	         94.16068909	        -12.77293587	         -0.05230326	          0.00000000	         -0.00631673	         -0.00000002	          0.00000038	          0.00000001	          0.00000000	          0.00000000	          0.00000000	          0.00000000	          0.21863749	          0.00000000	          0.00000000	         -0.00000000	          0.00000000	
          1.43500000	         -1.80198224	        100.62991471	        -13.58457029	         -0.06629920	          0.00000000	         -0.00970136	         -0.00000003	          0.00000042	          0.00000001	          0.00000000	          0.00000000	          0.00000000	          0.00000000	          0.23247737	          0.00000000	          0.00000000	         -0.00000000	          0.00000000	
          1.43600000	         -2.40614401	        107.24401544	        -14.40371924	         -0.08009929	          0.00000000	         -0.01303392	         -0.00000003	          0.00000046	          0.00000001	          0.00000000	          0.00000000	          0.00000000	          0.00000000	          0.24634979	          0.00000000	          0.00000000	         -0.00000000	          0.00000000	
          1.43700000	         -3.06380830	        113.99045620	        -15.22807774	         -0.09366741	          0.00000000	         -0.01630626	         -0.00000003	          0.00000050	          0.00000001	          0.00000000	          0.00000000	          0.00000000	          0.00000000	          0.26020990	          0.00000000	          0.00000000	         -0.00000000	          0.00000000	
          1.43800000	         -3.77694454	        120.85526270	        -16.05516615	         -0.10696997	          0.00000000	         -0.01951095	         -0.00000004	          0.00000055	          0.00000001	          0.00000000	          0.00000000	          0.00000000	          0.00000000	          0.27400997	          0.00000000	          0.00000000	         -0.00000001	          0.00000000	
          1.43900000	         -4.54740354	        127.82319489	        -16.88235593	         -0.11997695	          0.00000000	         -0.02264157	         -0.00000004	          0.00000059	          0.00000002	          0.00000000	          0.00000000	          0.00000000	          0.00000000	          0.28769978	          0.00000000	          0.00000000	         -0.00000001	          0.00000000	
          1.44000000	         -5.37686445	        134.87803309	        -17.70689369	         -0.13266204	          0.00000000	         -0.02569269	         -0.00000004	          0.00000064	          0.00000002	          0.00000000	          0.00000000	          0.00000000	          0.00000000	          0.30122689	          0.00000000	          0.00000000	         -0.00000001	          0.00000000	
          1.44100000	         -6.26677410	        142.00296532	        -18.52592120	         -0.14500237	          0.00000000	         -0.02865974	         -0.00000005	          0.00000069	          0.00000002	          0.00000000	          0.00000000	          0.00000000	          0.00000000	          0.31453697	          0.00000000	          0.00000000	         -0.00000001	          0.00000000	
          1.44200000	         -7.21828025	        149.18104663	        -19.33649056	         -0.15697832	          0.00000000	         -0.03153892	         -0.00000005	          0.00000074	          0.00000002	          0.00000000	          0.00000000	          0.00000000	          0.00000000	          0.32757429	          0.00000000	          0.00000000	         -0.00000001	          0.00000000	
          1.44300000	         -8.23216260	        156.39567888	        -20.13557542	         -0.16857328	          0.00000000	         -0.03432721	         -0.00000005	          0.00000079	          0.00000002	          0.00000000	          0.00000000	          0.00000000	          0.00000000	          0.34028222	          0.00000000	          0.00000000	         -0.00000001	          0.00000000	
          1.44400000	         -9.30876766	        163.63105016	        -20.92008114	         -0.17977346	          0.00000000	         -0.03702220	         -0.00000006	          0.00000084	          0.00000002	          0.00000000	          0.00000000	          0.00000000	          0.00000000	          0.35260357	          0.00000000	          0.00000000	         -0.00000001	          0.00000000	
